<?xml version="1.0" encoding="UTF-8" standalone="no"?>
<!DOCTYPE svg PUBLIC "-//W3C//DTD SVG 1.1//EN"
 "http://www.w3.org/Graphics/SVG/1.1/DTD/svg11.dtd">
<!-- Generated by graphviz version 2.40.1 (20161225.0304)
 -->
<!-- Title: state transitions Pages: 1 -->
<svg width="237pt" height="352pt"
 viewBox="0.00 0.00 236.70 352.00" xmlns="http://www.w3.org/2000/svg" xmlns:xlink="http://www.w3.org/1999/xlink">
<g id="graph0" class="graph" transform="scale(1 1) rotate(0) translate(4 348)">
<title>state transitions</title>
<polygon fill="#ffffff" stroke="transparent" points="-4,4 -4,-348 232.6966,-348 232.6966,4 -4,4"/>
<g id="clust1" class="cluster">
<title>cluster_r_light_mask</title>
<path fill="none" stroke="#000000" stroke-width="2" d="M20,-8C20,-8 206,-8 206,-8 212,-8 218,-14 218,-20 218,-20 218,-324 218,-324 218,-330 212,-336 206,-336 206,-336 20,-336 20,-336 14,-336 8,-330 8,-324 8,-324 8,-20 8,-20 8,-14 14,-8 20,-8"/>
<text text-anchor="start" x="78.998" y="-317.2" font-family="Helvetica,sans-Serif" font-size="12.00" fill="#000000">r_light_mask</text>
</g>
<!-- r_light_mask -->
<!-- c_MASK_MAINT -->
<g id="node2" class="node">
<title>c_MASK_MAINT</title>
<polygon fill="transparent" stroke="transparent" stroke-width="2" points="141,-298 29,-298 29,-262 141,-262 141,-298"/>
<text text-anchor="start" x="39.6646" y="-276.2" font-family="Helvetica,sans-Serif" font-size="12.00" fill="#000000">c_MASK_MAINT</text>
<path fill="none" stroke="#000000" stroke-width="2" d="M41.3333,-263C41.3333,-263 128.6667,-263 128.6667,-263 134.3333,-263 140,-268.6667 140,-274.3333 140,-274.3333 140,-285.6667 140,-285.6667 140,-291.3333 134.3333,-297 128.6667,-297 128.6667,-297 41.3333,-297 41.3333,-297 35.6667,-297 30,-291.3333 30,-285.6667 30,-285.6667 30,-274.3333 30,-274.3333 30,-268.6667 35.6667,-263 41.3333,-263"/>
</g>
<!-- c_mask_ns -->
<g id="node3" class="node">
<title>c_mask_ns</title>
<polygon fill="transparent" stroke="transparent" stroke-width="2" points="126,-216 44,-216 44,-180 126,-180 126,-216"/>
<text text-anchor="start" x="54.661" y="-194.2" font-family="Helvetica,sans-Serif" font-size="12.00" fill="#000000">c_mask_ns</text>
<path fill="none" stroke="#000000" stroke-width="2" d="M56.3333,-181C56.3333,-181 113.6667,-181 113.6667,-181 119.3333,-181 125,-186.6667 125,-192.3333 125,-192.3333 125,-203.6667 125,-203.6667 125,-209.3333 119.3333,-215 113.6667,-215 113.6667,-215 56.3333,-215 56.3333,-215 50.6667,-215 45,-209.3333 45,-203.6667 45,-203.6667 45,-192.3333 45,-192.3333 45,-186.6667 50.6667,-181 56.3333,-181"/>
</g>
<!-- c_MASK_MAINT&#45;&gt;c_mask_ns -->
<g id="edge1" class="edge">
<title>c_MASK_MAINT&#45;&gt;c_mask_ns</title>
<path fill="none" stroke="#000000" d="M85,-261.8015C85,-251.3976 85,-238.1215 85,-226.3768"/>
<polygon fill="#000000" stroke="#000000" points="88.5001,-226.1476 85,-216.1476 81.5001,-226.1476 88.5001,-226.1476"/>
<text text-anchor="middle" x="86.3895" y="-236" font-family="Helvetica,sans-Serif" font-size="10.00" fill="#000000"> </text>
</g>
<!-- c_mask_ew -->
<g id="node4" class="node">
<title>c_mask_ew</title>
<polygon fill="transparent" stroke="transparent" stroke-width="2" points="127.5,-134 42.5,-134 42.5,-98 127.5,-98 127.5,-134"/>
<text text-anchor="start" x="53.8296" y="-112.2" font-family="Helvetica,sans-Serif" font-size="12.00" fill="#000000">c_mask_ew</text>
<path fill="none" stroke="#000000" stroke-width="2" d="M54.8333,-99C54.8333,-99 115.1667,-99 115.1667,-99 120.8333,-99 126.5,-104.6667 126.5,-110.3333 126.5,-110.3333 126.5,-121.6667 126.5,-121.6667 126.5,-127.3333 120.8333,-133 115.1667,-133 115.1667,-133 54.8333,-133 54.8333,-133 49.1667,-133 43.5,-127.3333 43.5,-121.6667 43.5,-121.6667 43.5,-110.3333 43.5,-110.3333 43.5,-104.6667 49.1667,-99 54.8333,-99"/>
</g>
<!-- c_mask_ns&#45;&gt;c_mask_ew -->
<g id="edge2" class="edge">
<title>c_mask_ns&#45;&gt;c_mask_ew</title>
<path fill="none" stroke="#000000" d="M65.5598,-179.9819C61.3465,-174.9374 57.4795,-169.1399 55.221,-163 52.6532,-156.0193 54.3241,-148.9859 57.9163,-142.563"/>
<polygon fill="#000000" stroke="#000000" points="60.8802,-144.4333 63.7879,-134.2452 55.1615,-140.3964 60.8802,-144.4333"/>
<text text-anchor="middle" x="56.3895" y="-154" font-family="Helvetica,sans-Serif" font-size="10.00" fill="#000000"> </text>
</g>
<!-- c_mask_ew&#45;&gt;c_mask_ns -->
<g id="edge4" class="edge">
<title>c_mask_ew&#45;&gt;c_mask_ns</title>
<path fill="none" stroke="#000000" d="M85,-134.1476C85,-144.5421 85,-157.816 85,-169.5658"/>
<polygon fill="#000000" stroke="#000000" points="81.5001,-169.8015 85,-179.8015 88.5001,-169.8016 81.5001,-169.8015"/>
<text text-anchor="start" x="85" y="-154" font-family="Helvetica,sans-Serif" font-size="10.00" fill="#000000">not (w_input.ped=&#39;1&#39;) &#160;&#160;</text>
</g>
<!-- c_mask_ped -->
<g id="node5" class="node">
<title>c_mask_ped</title>
<polygon fill="transparent" stroke="transparent" stroke-width="2" points="170,-52 80,-52 80,-16 170,-16 170,-52"/>
<text text-anchor="start" x="90.9902" y="-30.2" font-family="Helvetica,sans-Serif" font-size="12.00" fill="#000000">c_mask_ped</text>
<path fill="none" stroke="#000000" stroke-width="2" d="M92.3333,-17C92.3333,-17 157.6667,-17 157.6667,-17 163.3333,-17 169,-22.6667 169,-28.3333 169,-28.3333 169,-39.6667 169,-39.6667 169,-45.3333 163.3333,-51 157.6667,-51 157.6667,-51 92.3333,-51 92.3333,-51 86.6667,-51 81,-45.3333 81,-39.6667 81,-39.6667 81,-28.3333 81,-28.3333 81,-22.6667 86.6667,-17 92.3333,-17"/>
</g>
<!-- c_mask_ew&#45;&gt;c_mask_ped -->
<g id="edge3" class="edge">
<title>c_mask_ew&#45;&gt;c_mask_ped</title>
<path fill="none" stroke="#000000" d="M93.8773,-97.8015C99.1077,-87.0791 105.8263,-73.306 111.6817,-61.3026"/>
<polygon fill="#000000" stroke="#000000" points="114.9089,-62.6698 116.1475,-52.1476 108.6175,-59.6008 114.9089,-62.6698"/>
<text text-anchor="start" x="107" y="-72" font-family="Helvetica,sans-Serif" font-size="10.00" fill="#000000">w_input.ped=&#39;1&#39; &#160;&#160;</text>
</g>
<!-- c_mask_ped&#45;&gt;c_mask_ns -->
<g id="edge5" class="edge">
<title>c_mask_ped&#45;&gt;c_mask_ns</title>
<path fill="none" stroke="#000000" d="M170.0589,-50.0184C177.9868,-54.8847 185.2198,-61.1066 190,-69 269.6871,-200.5844 202.8653,-146.5869 191,-163 184.0954,-172.5511 159.8254,-180.9269 136.2491,-187.0883"/>
<polygon fill="#000000" stroke="#000000" points="135.0927,-183.7696 126.24,-189.5903 136.7903,-190.5607 135.0927,-183.7696"/>
<text text-anchor="middle" x="225.3895" y="-113" font-family="Helvetica,sans-Serif" font-size="10.00" fill="#000000"> </text>
</g>
</g>
</svg>
